<svg width="30" height="30" viewBox="0 0 30 30" fill="none" xmlns="http://www.w3.org/2000/svg">
<path fill-rule="evenodd" clip-rule="evenodd" d="M16.2461 13.4737V13.4298C16.2372 13.4445 16.2248 13.4592 16.217 13.4737H16.2461Z" fill="#FD5825"/>
<path fill-rule="evenodd" clip-rule="evenodd" d="M6 0C2.68629 0 0 2.68629 0 6V24C0 27.3137 2.68629 30 6 30H24C27.3137 30 30 27.3137 30 24V6C30 2.68629 27.3137 0 24 0H6ZM9.33112 22.6977C9.33112 23.9268 8.33474 24.9232 7.10565 24.9232V24.9232C5.87655 24.9232 4.88018 23.9268 4.88018 22.6977V13.7577C4.88018 12.5286 5.87655 11.5323 7.10565 11.5323V11.5323C8.33474 11.5323 9.33112 12.5286 9.33112 13.7577V22.6977ZM7.10565 9.70457H7.07624C5.58316 9.70457 4.61538 8.67593 4.61538 7.39022C4.61538 6.07629 5.61145 5.07679 7.13479 5.07679C8.65846 5.07679 9.59479 6.07629 9.62393 7.39022C9.62393 8.67593 8.65846 9.70457 7.10565 9.70457ZM25.3846 22.6971C25.3846 23.9266 24.388 24.9232 23.1586 24.9232V24.9232C21.9291 24.9232 20.9325 23.9266 20.9325 22.6971V17.759C20.9325 15.9596 20.2892 14.7313 18.6779 14.7313C17.4473 14.7313 16.716 15.5583 16.3938 16.3594C16.2767 16.6456 16.2462 17.0434 16.2462 17.4446V22.7023C16.2462 23.9289 15.2518 24.9233 14.0251 24.9233V24.9233C12.7942 24.9233 11.798 23.9259 11.8028 22.695C11.8124 20.2435 11.8248 16.3188 11.8175 13.8082C11.8138 12.5672 12.8315 11.5323 14.0725 11.5323H15.8123C16.0519 11.5323 16.2462 11.7266 16.2462 11.9662V11.9662C16.2462 12.398 16.8563 12.5953 17.1777 12.3068C17.8386 11.7134 18.7994 11.218 20.2586 11.218C23.1886 11.218 25.3846 13.1314 25.3846 17.2442V22.6971Z" fill="#FD5825"/>
</svg>
