<svg width="100" height="112" viewBox="0 0 100 112" fill="none" xmlns="http://www.w3.org/2000/svg">
<path d="M70.0462 23.2587C38.9953 2.75874 25.0463 1.60634 12.5 9.60634C2.87592 15.743 4.78054 31.4638 6.18985 38.454C6.65537 40.763 7.56622 42.9414 8.97672 44.8278C12.0543 48.9439 18.5279 55.9351 26.9953 55.9351C32.5595 55.9351 37.5871 53.5701 41.3796 51.0333C45.4919 48.2825 44.7358 42.5589 40.5522 39.9179V39.9179C39.5273 39.2709 38.3702 38.8625 37.1664 38.7229L35.1262 38.4862C28.6489 37.7347 22.3075 40.7296 18.7731 46.2093L12.5 55.9351L10.2389 59.8028C4.56599 69.5066 4.79348 81.5673 10.8283 91.0502L12.4486 93.5964C19.6155 104.858 33.4644 109.966 44.8513 102.999C62.4491 92.2326 86.3336 71.0188 94.5 32.6063" stroke="#FD5825" stroke-width="10" stroke-linecap="round"/>
</svg>
