<svg width="104" height="115" viewBox="0 0 104 115" fill="none" xmlns="http://www.w3.org/2000/svg">
<path d="M72.0462 25.2587C40.9953 4.75874 27.0463 3.60634 14.5 11.6063C6.66156 16.6045 6.47065 27.9601 7.43105 35.7785C8.10114 41.2336 10.2253 46.4716 14.0308 50.4371C17.545 54.0991 22.7232 57.9351 28.9953 57.9351C34.5595 57.9351 39.5871 55.5701 43.3796 53.0333C47.4919 50.2825 46.7358 44.5589 42.5522 41.9179V41.9179C41.5273 41.2709 40.3702 40.8625 39.1664 40.7229L37.1262 40.4862C30.6489 39.7347 24.3075 42.7296 20.7731 48.2093L14.5 57.9351L12.9216 60.6349C6.82952 71.0558 7.07382 84.0078 13.5546 94.1915V94.1915C21.2511 106.286 36.1562 111.776 48.2728 104.115C65.7124 93.0884 88.5515 71.9939 96.5 34.6063" stroke="url(#paint0_linear_109_5)" stroke-width="13" stroke-linecap="round"/>
<defs>
<linearGradient id="paint0_linear_109_5" x1="36" y1="7" x2="37" y2="115" gradientUnits="userSpaceOnUse">
<stop stop-color="#3FABAF"/>
<stop offset="1" stop-color="#FD5825"/>
</linearGradient>
</defs>
</svg>
