<svg width="31" height="31" viewBox="0 0 31 31" fill="none" xmlns="http://www.w3.org/2000/svg">
<path d="M24.675 9.16248L19.125 2.91248C19.0081 2.78299 18.8655 2.67939 18.7062 2.60835C18.5468 2.53731 18.3744 2.50039 18.2 2.49998H8.2C7.78469 2.49503 7.37247 2.57193 6.98688 2.7263C6.60129 2.88067 6.24988 3.10948 5.95273 3.39967C5.65557 3.68986 5.41849 4.03574 5.25502 4.41756C5.09155 4.79938 5.0049 5.20967 5 5.62498V24.375C5.0049 24.7903 5.09155 25.2006 5.25502 25.5824C5.41849 25.9642 5.65557 26.3101 5.95273 26.6003C6.24988 26.8905 6.60129 27.1193 6.98688 27.2737C7.37247 27.428 7.78469 27.5049 8.2 27.5H21.8C22.2153 27.5049 22.6275 27.428 23.0131 27.2737C23.3987 27.1193 23.7501 26.8905 24.0473 26.6003C24.3444 26.3101 24.5815 25.9642 24.745 25.5824C24.9084 25.2006 24.9951 24.7903 25 24.375V9.99998C24.9992 9.69019 24.8834 9.39173 24.675 9.16248V9.16248ZM17.5 4.99998L22.175 9.99998H18.425C18.2941 9.99208 18.1661 9.95818 18.0484 9.90027C17.9308 9.84236 17.8258 9.76159 17.7397 9.66269C17.6536 9.56378 17.5881 9.44871 17.5469 9.3242C17.5057 9.19968 17.4898 9.06822 17.5 8.93748V4.99998Z" fill="#FD5825"/>
</svg>
