<svg width="30" height="30" viewBox="0 0 30 30" fill="none" xmlns="http://www.w3.org/2000/svg">
<rect width="30" height="30" rx="7" fill="#3FABAF"/>
<path d="M15 4C8.94794 4 4 8.94794 4 15C4 21.0521 8.94794 26 15 26C21.0521 26 26 21.0521 26 15C26 8.94794 21.105 4 15 4ZM20.06 19.895C19.8407 20.2243 19.4543 20.335 19.125 20.1129C16.54 18.52 13.2957 18.19 9.44294 19.0679C9.06 19.1814 8.73 18.9064 8.61862 18.5729C8.51137 18.19 8.78362 17.8607 9.11294 17.75C13.2957 16.815 16.9264 17.1979 19.7836 18.96C20.1707 19.125 20.2236 19.565 20.0593 19.895H20.06ZM21.3807 16.8693C21.105 17.2564 20.6107 17.4214 20.2236 17.145C17.2557 15.3293 12.7436 14.7821 9.28138 15.8807C8.84069 15.9879 8.34294 15.77 8.23569 15.3286C8.125 14.8886 8.34294 14.3943 8.78363 14.2836C12.8014 13.0729 17.7493 13.6814 21.1586 15.7693C21.4914 15.9343 21.6564 16.485 21.3807 16.8686V16.8693ZM21.4921 13.79C17.9686 11.6979 12.085 11.48 8.73 12.5257C8.17931 12.69 7.63069 12.3607 7.46569 11.8629C7.30137 11.315 7.63069 10.7636 8.125 10.5986C12.0321 9.44294 18.4657 9.66431 22.5378 12.0843C23.0321 12.36 23.1957 13.0193 22.9207 13.5136C22.645 13.9007 21.9857 14.0643 21.4914 13.7893L21.4921 13.79Z" fill="#F7EFE5"/>
</svg>
