<svg width="30" height="30" viewBox="0 0 30 30" fill="none" xmlns="http://www.w3.org/2000/svg">
<g clip-path="url(#clip0_212_326)">
<path d="M29.9912 0H0.00878906C0.003935 0 0 0.003935 0 0.00878906V29.9912C0 29.9961 0.003935 30 0.00878906 30H29.9912C29.9961 30 30 29.9961 30 29.9912V0.00878906C30 0.003935 29.9961 0 29.9912 0Z" fill="#FD5825"/>
<path d="M19.6289 29.2383C20.4492 29.2383 20.332 30.2344 20.332 30.2344H9.66796C9.66796 30.2344 9.55078 29.2383 10.3711 29.2383C11.1328 29.2383 11.3086 28.8867 11.3086 28.5352L11.25 25.6055C7.08984 26.543 6.21093 23.9649 6.21093 23.9649C5.50781 22.207 4.57031 21.7969 4.57031 21.7969C3.16406 20.8594 4.6289 20.8594 4.6289 20.8594C6.15234 20.9766 6.97265 22.3828 6.97265 22.3828C8.26171 24.668 10.4297 24.0235 11.3086 23.6719C11.4258 22.6758 11.8359 22.0313 12.2461 21.6211C8.90624 21.2695 5.44921 19.9805 5.44921 14.2383C5.44921 12.5977 6.03515 11.25 6.97265 10.1953C6.79687 9.84377 6.32812 8.32033 7.14843 6.26955C7.14843 6.26955 8.3789 5.85939 11.25 7.79298C13.7109 7.08986 16.2891 7.08986 18.75 7.79298C21.6211 5.85939 22.8516 6.26955 22.8516 6.26955C23.6719 8.32033 23.2031 9.84377 23.0273 10.1953C23.9648 11.25 24.5508 12.5977 24.5508 14.2383C24.5508 19.9805 21.0352 21.2695 17.6953 21.6211C18.2812 22.0899 18.75 23.0274 18.75 24.4336L18.6914 28.5352C18.6914 28.8867 18.8672 29.2383 19.6289 29.2383Z" fill="#F7EFE5"/>
</g>
<defs>
<clipPath id="clip0_212_326">
<rect width="30" height="30" rx="7" fill="white"/>
</clipPath>
</defs>
</svg>
