<svg width="31" height="31" viewBox="0 0 31 31" fill="none" xmlns="http://www.w3.org/2000/svg">
<rect width="30" height="30" rx="7" fill="#3FABAF"/>
<path d="M22.2725 11.4137L18.3875 7.03872C18.3057 6.94808 18.2058 6.87556 18.0943 6.82583C17.9828 6.7761 17.8621 6.75026 17.74 6.74997H10.74C10.4493 6.74651 10.1607 6.80034 9.89081 6.9084C9.6209 7.01646 9.37492 7.17663 9.16691 7.37976C8.9589 7.58289 8.79294 7.82501 8.67852 8.09228C8.56409 8.35956 8.50343 8.64675 8.5 8.93747V22.0625C8.50343 22.3532 8.56409 22.6404 8.67852 22.9077C8.79294 23.1749 8.9589 23.4171 9.16691 23.6202C9.37492 23.8233 9.6209 23.9835 9.89081 24.0915C10.1607 24.1996 10.4493 24.2534 10.74 24.25H20.26C20.5507 24.2534 20.8393 24.1996 21.1092 24.0915C21.3791 23.9835 21.6251 23.8233 21.8331 23.6202C22.0411 23.4171 22.2071 23.1749 22.3215 22.9077C22.4359 22.6404 22.4966 22.3532 22.5 22.0625V12C22.4994 11.7831 22.4184 11.5742 22.2725 11.4137V11.4137ZM17.25 8.49997L20.5225 12H17.8975C17.8059 11.9944 17.7163 11.9707 17.6339 11.9302C17.5515 11.8896 17.4781 11.8331 17.4178 11.7639C17.3575 11.6946 17.3116 11.6141 17.2828 11.5269C17.254 11.4398 17.2429 11.3477 17.25 11.2562V8.49997Z" fill="#F7EFE5"/>
</svg>
